<svg width="1440" height="1024" viewBox="0 0 1440 1024" fill="none" xmlns="http://www.w3.org/2000/svg">
<g clip-path="url(#clip0_23_758)">
<rect width="1440" height="1024" rx="16" fill="white"/>
<rect width="1410" height="72" transform="translate(0 961)" fill="white"/>
<path d="M31 996.636C31 996.17 31.1136 995.746 31.3409 995.362C31.5682 994.979 31.8736 994.673 32.2571 994.446C32.6406 994.219 33.0653 994.105 33.5312 994.105C33.9347 994.105 34.3068 994.192 34.6477 994.365C34.9915 994.538 35.2756 994.776 35.5 995.077C35.7244 995.375 35.8636 995.713 35.9176 996.091H34.8864C34.8295 995.798 34.6719 995.56 34.4134 995.375C34.1548 995.188 33.8608 995.094 33.5312 995.094C33.2472 995.094 32.9886 995.163 32.7557 995.303C32.5227 995.442 32.3366 995.628 32.1974 995.861C32.0582 996.094 31.9886 996.352 31.9886 996.636C31.9886 996.92 32.0582 997.179 32.1974 997.412C32.3366 997.645 32.5227 997.831 32.7557 997.97C32.9886 998.109 33.2472 998.179 33.5312 998.179C33.8608 998.179 34.1392 998.087 34.3665 997.902C34.5966 997.714 34.7415 997.474 34.8011 997.182H35.8324C35.7784 997.56 35.6463 997.899 35.4361 998.2C35.2259 998.499 34.956 998.734 34.6264 998.908C34.2997 999.081 33.9347 999.168 33.5312 999.168C33.0653 999.168 32.6406 999.054 32.2571 998.827C31.8736 998.599 31.5682 998.294 31.3409 997.911C31.1136 997.527 31 997.102 31 996.636ZM33.4886 1001.14C32.8693 1001.14 32.2869 1001.02 31.7415 1000.79C31.1989 1000.55 30.7202 1000.23 30.3054 999.82C29.8935 999.405 29.5696 998.926 29.3338 998.384C29.1009 997.841 28.9858 997.259 28.9886 996.636C28.9915 996.014 29.1094 995.432 29.3423 994.889C29.5781 994.347 29.902 993.869 30.3139 993.457C30.7259 993.043 31.2031 992.719 31.7457 992.486C32.2884 992.253 32.8693 992.136 33.4886 992.136C34.1108 992.136 34.6932 992.253 35.2358 992.486C35.7813 992.719 36.2585 993.043 36.6676 993.457C37.0795 993.869 37.402 994.347 37.6349 994.889C37.8679 995.432 37.9858 996.014 37.9886 996.636C37.9915 997.259 37.8764 997.841 37.6435 998.384C37.4105 998.926 37.0881 999.405 36.6761 999.82C36.2642 1000.23 35.7855 1000.55 35.2401 1000.79C34.6946 1001.02 34.1108 1001.14 33.4886 1001.14ZM33.4886 1000.15C33.9744 1000.15 34.4304 1000.06 34.8565 999.875C35.2827 999.693 35.6562 999.442 35.9773 999.121C36.2983 998.8 36.5497 998.428 36.7315 998.004C36.9134 997.578 37.0028 997.124 37 996.641C36.9972 996.155 36.9048 995.699 36.723 995.273C36.5412 994.847 36.2898 994.473 35.9688 994.152C35.6477 993.831 35.2756 993.58 34.8523 993.398C34.429 993.216 33.9744 993.125 33.4886 993.125C33.0057 993.125 32.5526 993.216 32.1293 993.398C31.706 993.58 31.3338 993.832 31.0128 994.156C30.6918 994.477 30.4389 994.851 30.2543 995.277C30.0724 995.7 29.9801 996.155 29.9773 996.641C29.9744 997.121 30.0639 997.574 30.2457 998C30.4276 998.423 30.679 998.795 31 999.116C31.3239 999.437 31.6974 999.69 32.1207 999.875C32.5469 1000.06 33.0028 1000.15 33.4886 1000.15ZM43.2759 1001V994.455H44.2475V995.443H44.3157C44.435 995.119 44.6509 994.857 44.9634 994.655C45.2759 994.453 45.6282 994.352 46.0202 994.352C46.0941 994.352 46.1864 994.354 46.2972 994.357C46.408 994.359 46.4918 994.364 46.5487 994.369V995.392C46.5146 995.384 46.4364 995.371 46.3143 995.354C46.195 995.334 46.0685 995.324 45.935 995.324C45.6168 995.324 45.3327 995.391 45.0827 995.524C44.8356 995.655 44.6396 995.837 44.4947 996.07C44.3526 996.3 44.2816 996.562 44.2816 996.858V1001H43.2759ZM49.6669 1001.15C49.2521 1001.15 48.8757 1001.08 48.5376 1000.92C48.1996 1000.76 47.9311 1000.53 47.7322 1000.23C47.5334 999.932 47.4339 999.568 47.4339 999.142C47.4339 998.767 47.5078 998.463 47.6555 998.23C47.8033 997.994 48.0007 997.81 48.2479 997.676C48.495 997.543 48.7678 997.443 49.0661 997.378C49.3672 997.31 49.6697 997.256 49.9737 997.216C50.3714 997.165 50.6939 997.126 50.9411 997.101C51.1911 997.072 51.3729 997.026 51.4865 996.96C51.603 996.895 51.6612 996.781 51.6612 996.619V996.585C51.6612 996.165 51.5462 995.838 51.3161 995.605C51.0888 995.372 50.7436 995.256 50.2805 995.256C49.8004 995.256 49.424 995.361 49.1513 995.571C48.8786 995.781 48.6868 996.006 48.576 996.244L47.6214 995.903C47.7919 995.506 48.0192 995.196 48.3033 994.974C48.5902 994.75 48.9027 994.594 49.2408 994.506C49.5817 994.415 49.9169 994.369 50.2464 994.369C50.4567 994.369 50.6982 994.395 50.9709 994.446C51.2464 994.494 51.5121 994.595 51.7678 994.749C52.0263 994.902 52.2408 995.134 52.4112 995.443C52.5817 995.753 52.6669 996.168 52.6669 996.688V1001H51.6612V1000.11H51.6101C51.5419 1000.26 51.4283 1000.41 51.2692 1000.57C51.1101 1000.73 50.8984 1000.87 50.6342 1000.98C50.37 1001.1 50.0476 1001.15 49.6669 1001.15ZM49.8203 1000.25C50.218 1000.25 50.5533 1000.17 50.826 1000.02C51.1016 999.859 51.3089 999.658 51.4482 999.411C51.5902 999.163 51.6612 998.903 51.6612 998.631V997.71C51.6186 997.761 51.5249 997.808 51.38 997.851C51.2379 997.891 51.0732 997.926 50.8857 997.957C50.701 997.986 50.5206 998.011 50.3445 998.034C50.1712 998.054 50.0305 998.071 49.9226 998.085C49.6612 998.119 49.4169 998.175 49.1896 998.251C48.9652 998.325 48.7834 998.437 48.6442 998.588C48.5078 998.736 48.4396 998.937 48.4396 999.193C48.4396 999.543 48.5689 999.807 48.8274 999.986C49.0888 1000.16 49.4197 1000.25 49.8203 1000.25ZM54.5025 1003.45V994.455H55.4741V995.494H55.5934C55.6673 995.381 55.7695 995.236 55.9002 995.06C56.0337 994.881 56.2241 994.722 56.4712 994.582C56.7212 994.44 57.0593 994.369 57.4854 994.369C58.0366 994.369 58.5224 994.507 58.9428 994.783C59.3633 995.058 59.6914 995.449 59.9272 995.955C60.163 996.46 60.2809 997.057 60.2809 997.744C60.2809 998.438 60.163 999.038 59.9272 999.547C59.6914 1000.05 59.3647 1000.44 58.9471 1000.72C58.5295 1001 58.0479 1001.14 57.5025 1001.14C57.082 1001.14 56.7454 1001.07 56.4925 1000.93C56.2397 1000.79 56.0451 1000.62 55.9087 1000.45C55.7724 1000.26 55.6673 1000.11 55.5934 999.994H55.5082V1003.45H54.5025ZM55.4911 997.727C55.4911 998.222 55.5636 998.658 55.7085 999.036C55.8533 999.411 56.065 999.705 56.3434 999.918C56.6218 1000.13 56.9627 1000.23 57.3661 1000.23C57.7866 1000.23 58.1374 1000.12 58.4187 999.901C58.7028 999.676 58.9158 999.375 59.0579 998.997C59.2028 998.616 59.2752 998.193 59.2752 997.727C59.2752 997.267 59.2042 996.852 59.0621 996.483C58.9229 996.111 58.7113 995.817 58.4272 995.601C58.146 995.382 57.7923 995.273 57.3661 995.273C56.957 995.273 56.6133 995.376 56.3349 995.584C56.0565 995.788 55.8462 996.075 55.7042 996.445C55.5621 996.811 55.4911 997.239 55.4911 997.727ZM62.8207 997.062V1001H61.815V992.273H62.8207V995.477H62.9059C63.0593 995.139 63.2894 994.871 63.5962 994.672C63.9059 994.47 64.3178 994.369 64.832 994.369C65.2781 994.369 65.6687 994.459 66.0039 994.638C66.3391 994.814 66.5991 995.085 66.7837 995.452C66.9712 995.815 67.065 996.278 67.065 996.841V1001H66.0593V996.909C66.0593 996.389 65.9244 995.987 65.6545 995.703C65.3874 995.416 65.0167 995.273 64.5423 995.273C64.2127 995.273 63.9173 995.342 63.6559 995.482C63.3974 995.621 63.1928 995.824 63.0423 996.091C62.8945 996.358 62.8207 996.682 62.8207 997.062ZM70.831 1001.15C70.4162 1001.15 70.0398 1001.08 69.7017 1000.92C69.3636 1000.76 69.0952 1000.53 68.8963 1000.23C68.6974 999.932 68.598 999.568 68.598 999.142C68.598 998.767 68.6719 998.463 68.8196 998.23C68.9673 997.994 69.1648 997.81 69.4119 997.676C69.6591 997.543 69.9318 997.443 70.2301 997.378C70.5313 997.31 70.8338 997.256 71.1378 997.216C71.5355 997.165 71.858 997.126 72.1051 997.101C72.3551 997.072 72.5369 997.026 72.6506 996.96C72.767 996.895 72.8253 996.781 72.8253 996.619V996.585C72.8253 996.165 72.7102 995.838 72.4801 995.605C72.2528 995.372 71.9077 995.256 71.4446 995.256C70.9645 995.256 70.5881 995.361 70.3153 995.571C70.0426 995.781 69.8509 996.006 69.7401 996.244L68.7855 995.903C68.956 995.506 69.1832 995.196 69.4673 994.974C69.7543 994.75 70.0668 994.594 70.4048 994.506C70.7457 994.415 71.081 994.369 71.4105 994.369C71.6207 994.369 71.8622 994.395 72.1349 994.446C72.4105 994.494 72.6761 994.595 72.9318 994.749C73.1903 994.902 73.4048 995.134 73.5753 995.443C73.7457 995.753 73.831 996.168 73.831 996.688V1001H72.8253V1000.11H72.7741C72.706 1000.26 72.5923 1000.41 72.4332 1000.57C72.2741 1000.73 72.0625 1000.87 71.7983 1000.98C71.5341 1001.1 71.2116 1001.15 70.831 1001.15ZM70.9844 1000.25C71.3821 1000.25 71.7173 1000.17 71.9901 1000.02C72.2656 999.859 72.473 999.658 72.6122 999.411C72.7543 999.163 72.8253 998.903 72.8253 998.631V997.71C72.7827 997.761 72.6889 997.808 72.544 997.851C72.402 997.891 72.2372 997.926 72.0497 997.957C71.8651 997.986 71.6847 998.011 71.5085 998.034C71.3352 998.054 71.1946 998.071 71.0866 998.085C70.8253 998.119 70.581 998.175 70.3537 998.251C70.1293 998.325 69.9474 998.437 69.8082 998.588C69.6719 998.736 69.6037 998.937 69.6037 999.193C69.6037 999.543 69.733 999.807 69.9915 999.986C70.2528 1000.16 70.5838 1000.25 70.9844 1000.25ZM78.4109 1001.14C77.7802 1001.14 77.2362 1001 76.7788 1000.72C76.3242 1000.44 75.9734 1000.05 75.7262 999.543C75.4819 999.037 75.3597 998.449 75.3597 997.778C75.3597 997.108 75.4819 996.517 75.7262 996.006C75.9734 995.491 76.3171 995.091 76.7575 994.804C77.2006 994.514 77.7177 994.369 78.3086 994.369C78.6495 994.369 78.9862 994.426 79.3185 994.54C79.6509 994.653 79.9535 994.838 80.2262 995.094C80.4989 995.347 80.7163 995.682 80.8782 996.099C81.0401 996.517 81.1211 997.031 81.1211 997.642V998.068H76.0756V997.199H80.0984C80.0984 996.83 80.0245 996.5 79.8768 996.21C79.7319 995.92 79.5245 995.692 79.2546 995.524C78.9876 995.357 78.6722 995.273 78.3086 995.273C77.908 995.273 77.5614 995.372 77.2688 995.571C76.979 995.767 76.756 996.023 76.5998 996.338C76.4435 996.653 76.3654 996.991 76.3654 997.352V997.932C76.3654 998.426 76.4506 998.845 76.6211 999.189C76.7944 999.53 77.0344 999.79 77.3413 999.969C77.6481 1000.14 78.0046 1000.23 78.4109 1000.23C78.6751 1000.23 78.9137 1000.2 79.1268 1000.12C79.3427 1000.05 79.5288 999.932 79.685 999.781C79.8413 999.628 79.962 999.437 80.0472 999.21L81.0188 999.483C80.9165 999.812 80.7447 1000.1 80.5032 1000.35C80.2617 1000.6 79.9634 1000.79 79.6083 1000.93C79.2532 1001.07 78.854 1001.14 78.4109 1001.14ZM83.6566 992.273V1001H82.6509V992.273H83.6566ZM88.4134 994.455V995.307H84.8849V994.455H88.4134ZM85.9418 1001V993.551C85.9418 993.176 86.0298 992.864 86.206 992.614C86.3821 992.364 86.6108 992.176 86.892 992.051C87.1733 991.926 87.4702 991.864 87.7827 991.864C88.0298 991.864 88.2315 991.884 88.3878 991.923C88.544 991.963 88.6605 992 88.7372 992.034L88.4474 992.903C88.3963 992.886 88.3253 992.865 88.2344 992.839C88.1463 992.814 88.0298 992.801 87.8849 992.801C87.5526 992.801 87.3125 992.885 87.1648 993.053C87.0199 993.22 86.9474 993.466 86.9474 993.79V1001H85.9418ZM89.8228 1001V994.455H90.7944V995.443H90.8626C90.9819 995.119 91.1978 994.857 91.5103 994.655C91.8228 994.453 92.1751 994.352 92.5671 994.352C92.641 994.352 92.7333 994.354 92.8441 994.357C92.9549 994.359 93.0387 994.364 93.0955 994.369V995.392C93.0614 995.384 92.9833 995.371 92.8612 995.354C92.7418 995.334 92.6154 995.324 92.4819 995.324C92.1637 995.324 91.8796 995.391 91.6296 995.524C91.3825 995.655 91.1864 995.837 91.0415 996.07C90.8995 996.3 90.8285 996.562 90.8285 996.858V1001H89.8228ZM96.2138 1001.15C95.799 1001.15 95.4226 1001.08 95.0845 1000.92C94.7464 1000.76 94.478 1000.53 94.2791 1000.23C94.0803 999.932 93.9808 999.568 93.9808 999.142C93.9808 998.767 94.0547 998.463 94.2024 998.23C94.3501 997.994 94.5476 997.81 94.7947 997.676C95.0419 997.543 95.3146 997.443 95.6129 997.378C95.9141 997.31 96.2166 997.256 96.5206 997.216C96.9183 997.165 97.2408 997.126 97.4879 997.101C97.7379 997.072 97.9197 997.026 98.0334 996.96C98.1499 996.895 98.2081 996.781 98.2081 996.619V996.585C98.2081 996.165 98.093 995.838 97.8629 995.605C97.6357 995.372 97.2905 995.256 96.8274 995.256C96.3473 995.256 95.9709 995.361 95.6982 995.571C95.4254 995.781 95.2337 996.006 95.1229 996.244L94.1683 995.903C94.3388 995.506 94.5661 995.196 94.8501 994.974C95.1371 994.75 95.4496 994.594 95.7876 994.506C96.1286 994.415 96.4638 994.369 96.7933 994.369C97.0036 994.369 97.245 994.395 97.5178 994.446C97.7933 994.494 98.0589 994.595 98.3146 994.749C98.5732 994.902 98.7876 995.134 98.9581 995.443C99.1286 995.753 99.2138 996.168 99.2138 996.688V1001H98.2081V1000.11H98.157C98.0888 1000.26 97.9751 1000.41 97.8161 1000.57C97.657 1000.73 97.4453 1000.87 97.1811 1000.98C96.9169 1001.1 96.5945 1001.15 96.2138 1001.15ZM96.3672 1000.25C96.7649 1000.25 97.1001 1000.17 97.3729 1000.02C97.6484 999.859 97.8558 999.658 97.995 999.411C98.1371 999.163 98.2081 998.903 98.2081 998.631V997.71C98.1655 997.761 98.0717 997.808 97.9268 997.851C97.7848 997.891 97.62 997.926 97.4325 997.957C97.2479 997.986 97.0675 998.011 96.8913 998.034C96.718 998.054 96.5774 998.071 96.4695 998.085C96.2081 998.119 95.9638 998.175 95.7365 998.251C95.5121 998.325 95.3303 998.437 95.1911 998.588C95.0547 998.736 94.9865 998.937 94.9865 999.193C94.9865 999.543 95.1158 999.807 95.3743 999.986C95.6357 1000.16 95.9666 1000.25 96.3672 1000.25ZM102.055 997.062V1001H101.049V994.455H102.021V995.477H102.106C102.26 995.145 102.493 994.878 102.805 994.676C103.118 994.472 103.521 994.369 104.015 994.369C104.458 994.369 104.846 994.46 105.179 994.642C105.511 994.821 105.77 995.094 105.954 995.46C106.139 995.824 106.231 996.284 106.231 996.841V1001H105.225V996.909C105.225 996.395 105.092 995.994 104.825 995.707C104.558 995.418 104.191 995.273 103.725 995.273C103.404 995.273 103.118 995.342 102.865 995.482C102.615 995.621 102.417 995.824 102.272 996.091C102.127 996.358 102.055 996.682 102.055 997.062ZM110.728 1001.14C110.114 1001.14 109.586 1000.99 109.143 1000.7C108.7 1000.41 108.359 1000.01 108.12 999.504C107.881 998.996 107.762 998.415 107.762 997.761C107.762 997.097 107.884 996.51 108.129 996.001C108.376 995.49 108.719 995.091 109.16 994.804C109.603 994.514 110.12 994.369 110.711 994.369C111.171 994.369 111.586 994.455 111.955 994.625C112.325 994.795 112.627 995.034 112.863 995.341C113.099 995.648 113.245 996.006 113.302 996.415H112.296C112.219 996.116 112.049 995.852 111.785 995.622C111.523 995.389 111.171 995.273 110.728 995.273C110.336 995.273 109.992 995.375 109.697 995.58C109.404 995.781 109.175 996.067 109.011 996.436C108.849 996.803 108.768 997.233 108.768 997.727C108.768 998.233 108.847 998.673 109.006 999.048C109.168 999.423 109.396 999.714 109.688 999.922C109.984 1000.13 110.33 1000.23 110.728 1000.23C110.989 1000.23 111.227 1000.19 111.44 1000.1C111.653 1000.01 111.833 999.875 111.981 999.705C112.129 999.534 112.234 999.33 112.296 999.091H113.302C113.245 999.477 113.104 999.825 112.88 1000.13C112.658 1000.44 112.364 1000.69 111.998 1000.87C111.634 1001.05 111.211 1001.14 110.728 1001.14ZM117.431 1001.14C116.84 1001.14 116.322 1001 115.876 1000.71C115.433 1000.43 115.086 1000.04 114.836 999.534C114.589 999.028 114.465 998.437 114.465 997.761C114.465 997.08 114.589 996.484 114.836 995.976C115.086 995.467 115.433 995.072 115.876 994.791C116.322 994.51 116.84 994.369 117.431 994.369C118.022 994.369 118.539 994.51 118.982 994.791C119.428 995.072 119.775 995.467 120.022 995.976C120.272 996.484 120.397 997.08 120.397 997.761C120.397 998.437 120.272 999.028 120.022 999.534C119.775 1000.04 119.428 1000.43 118.982 1000.71C118.539 1001 118.022 1001.14 117.431 1001.14ZM117.431 1000.23C117.88 1000.23 118.249 1000.12 118.539 999.888C118.829 999.658 119.043 999.355 119.183 998.98C119.322 998.605 119.391 998.199 119.391 997.761C119.391 997.324 119.322 996.916 119.183 996.538C119.043 996.161 118.829 995.855 118.539 995.622C118.249 995.389 117.88 995.273 117.431 995.273C116.982 995.273 116.613 995.389 116.323 995.622C116.033 995.855 115.819 996.161 115.68 996.538C115.54 996.916 115.471 997.324 115.471 997.761C115.471 998.199 115.54 998.605 115.68 998.98C115.819 999.355 116.033 999.658 116.323 999.888C116.613 1000.12 116.982 1000.23 117.431 1000.23ZM122.665 1001.07C122.455 1001.07 122.275 1000.99 122.124 1000.84C121.973 1000.69 121.898 1000.51 121.898 1000.3C121.898 1000.09 121.973 999.911 122.124 999.76C122.275 999.609 122.455 999.534 122.665 999.534C122.875 999.534 123.056 999.609 123.206 999.76C123.357 999.911 123.432 1000.09 123.432 1000.3C123.432 1000.44 123.397 1000.57 123.326 1000.68C123.257 1000.8 123.165 1000.89 123.049 1000.97C122.935 1001.03 122.807 1001.07 122.665 1001.07ZM127.896 1001.14C127.305 1001.14 126.787 1001 126.341 1000.71C125.897 1000.43 125.551 1000.04 125.301 999.534C125.054 999.028 124.93 998.437 124.93 997.761C124.93 997.08 125.054 996.484 125.301 995.976C125.551 995.467 125.897 995.072 126.341 994.791C126.787 994.51 127.305 994.369 127.896 994.369C128.487 994.369 129.004 994.51 129.447 994.791C129.893 995.072 130.24 995.467 130.487 995.976C130.737 996.484 130.862 997.08 130.862 997.761C130.862 998.437 130.737 999.028 130.487 999.534C130.24 1000.04 129.893 1000.43 129.447 1000.71C129.004 1001 128.487 1001.14 127.896 1001.14ZM127.896 1000.23C128.345 1000.23 128.714 1000.12 129.004 999.888C129.294 999.658 129.508 999.355 129.647 998.98C129.787 998.605 129.856 998.199 129.856 997.761C129.856 997.324 129.787 996.916 129.647 996.538C129.508 996.161 129.294 995.855 129.004 995.622C128.714 995.389 128.345 995.273 127.896 995.273C127.447 995.273 127.078 995.389 126.788 995.622C126.498 995.855 126.284 996.161 126.145 996.538C126.005 996.916 125.936 997.324 125.936 997.761C125.936 998.199 126.005 998.605 126.145 998.98C126.284 999.355 126.498 999.658 126.788 999.888C127.078 1000.12 127.447 1000.23 127.896 1000.23ZM132.397 1001V994.455H133.369V995.443H133.437C133.556 995.119 133.772 994.857 134.085 994.655C134.397 994.453 134.749 994.352 135.141 994.352C135.215 994.352 135.308 994.354 135.418 994.357C135.529 994.359 135.613 994.364 135.67 994.369V995.392C135.636 995.384 135.558 995.371 135.435 995.354C135.316 995.334 135.19 995.324 135.056 995.324C134.738 995.324 134.454 995.391 134.204 995.524C133.957 995.655 133.761 995.837 133.616 996.07C133.474 996.3 133.403 996.562 133.403 996.858V1001H132.397ZM139.305 1003.59C138.819 1003.59 138.401 1003.53 138.052 1003.4C137.702 1003.28 137.411 1003.12 137.178 1002.92C136.948 1002.72 136.765 1002.51 136.629 1002.28L137.43 1001.72C137.521 1001.84 137.636 1001.97 137.775 1002.12C137.914 1002.28 138.104 1002.42 138.346 1002.53C138.59 1002.65 138.91 1002.7 139.305 1002.7C139.833 1002.7 140.269 1002.58 140.613 1002.32C140.957 1002.07 141.129 1001.66 141.129 1001.12V999.79H141.043C140.969 999.909 140.864 1000.06 140.728 1000.23C140.594 1000.41 140.401 1000.56 140.148 1000.7C139.898 1000.83 139.56 1000.9 139.134 1000.9C138.606 1000.9 138.131 1000.77 137.711 1000.52C137.293 1000.27 136.962 999.909 136.718 999.432C136.477 998.955 136.356 998.375 136.356 997.693C136.356 997.023 136.474 996.439 136.71 995.942C136.945 995.442 137.273 995.055 137.694 994.783C138.114 994.507 138.6 994.369 139.151 994.369C139.577 994.369 139.915 994.44 140.165 994.582C140.418 994.722 140.612 994.881 140.745 995.06C140.881 995.236 140.987 995.381 141.06 995.494H141.163V994.455H142.134V1001.19C142.134 1001.75 142.006 1002.21 141.751 1002.56C141.498 1002.91 141.157 1003.17 140.728 1003.34C140.302 1003.51 139.827 1003.59 139.305 1003.59ZM139.271 999.994C139.674 999.994 140.015 999.902 140.293 999.717C140.572 999.533 140.783 999.267 140.928 998.92C141.073 998.574 141.146 998.159 141.146 997.676C141.146 997.205 141.075 996.788 140.933 996.428C140.79 996.067 140.58 995.784 140.302 995.58C140.023 995.375 139.68 995.273 139.271 995.273C138.844 995.273 138.489 995.381 138.205 995.597C137.924 995.812 137.712 996.102 137.57 996.466C137.431 996.83 137.362 997.233 137.362 997.676C137.362 998.131 137.433 998.533 137.575 998.882C137.719 999.229 137.933 999.501 138.214 999.7C138.498 999.896 138.85 999.994 139.271 999.994Z" fill="black" fill-opacity="0.4"/>
<rect x="30" y="567" width="680" height="402" rx="16" fill="#F7F9FB"/>
<rect x="730" y="568" width="680" height="402" rx="16" fill="#F7F9FB"/>
<rect x="71" y="281" width="444" height="150" rx="16" fill="#E3F5FF"/>
<path fill-rule="evenodd" clip-rule="evenodd" d="M459.999 327C468.614 327 475.599 333.984 475.599 342.599C475.599 351.215 468.614 358.199 459.999 358.199C451.384 358.199 444.4 351.215 444.4 342.599C444.4 333.984 451.384 327 459.999 327Z" stroke="#758CA3" stroke-width="5" stroke-linecap="round"/>
<path fill-rule="evenodd" clip-rule="evenodd" d="M439.2 381.855C439.2 383.291 438.036 384.455 436.6 384.455C435.164 384.455 434 383.291 434 381.855V376.398C434 369.219 439.82 363.399 447 363.399H473C480.18 363.399 486 369.219 486 376.398V381.855C486 383.291 484.836 384.455 483.4 384.455C481.964 384.455 480.8 383.291 480.8 381.855V376.398C480.8 372.091 477.308 368.598 473 368.598H447C442.692 368.598 439.2 372.091 439.2 376.398V381.855Z" fill="#758CA3"/>
<rect width="1440" height="72" fill="#24292F"/>
<path d="M46 20C54.84 20 62 27.16 62 36C61.9991 39.3524 60.947 42.6201 58.9917 45.3432C57.0364 48.0664 54.2763 50.1077 51.1 51.18C50.3 51.34 50 50.84 50 50.42C50 49.88 50.02 48.16 50.02 46.02C50.02 44.52 49.52 43.56 48.94 43.06C52.5 42.66 56.24 41.3 56.24 35.16C56.24 33.4 55.62 31.98 54.6 30.86C54.76 30.46 55.32 28.82 54.44 26.62C54.44 26.62 53.1 26.18 50.04 28.26C48.76 27.9 47.4 27.72 46.04 27.72C44.68 27.72 43.32 27.9 42.04 28.26C38.98 26.2 37.64 26.62 37.64 26.62C36.76 28.82 37.32 30.46 37.48 30.86C36.46 31.98 35.84 33.42 35.84 35.16C35.84 41.28 39.56 42.66 43.12 43.06C42.66 43.46 42.24 44.16 42.1 45.2C41.18 45.62 38.88 46.3 37.44 43.88C37.14 43.4 36.24 42.22 34.98 42.24C33.64 42.26 34.44 43 35 43.3C35.68 43.68 36.46 45.1 36.64 45.56C36.96 46.46 38 48.18 42.02 47.44C42.02 48.78 42.04 50.04 42.04 50.42C42.04 50.84 41.74 51.32 40.94 51.18C37.7533 50.1193 34.9815 48.082 33.0178 45.3573C31.0541 42.6325 29.9982 39.3586 30 36C30 27.16 37.16 20 46 20Z" fill="white"/>
<path d="M73.306 35.722H76.596V40.622C76.092 40.7993 75.5787 40.93 75.056 41.014C74.5427 41.098 73.9547 41.14 73.292 41.14C72.3213 41.14 71.5 40.9347 70.828 40.524C70.1653 40.104 69.6613 39.5113 69.316 38.746C68.9707 37.9713 68.798 37.0567 68.798 36.002C68.798 34.9567 68.9893 34.0513 69.372 33.286C69.7547 32.5207 70.31 31.928 71.038 31.508C71.766 31.0787 72.6433 30.864 73.67 30.864C74.1927 30.864 74.6873 30.9153 75.154 31.018C75.63 31.1207 76.0687 31.2653 76.47 31.452L76.008 32.544C75.6813 32.3853 75.308 32.25 74.888 32.138C74.4773 32.026 74.0527 31.97 73.614 31.97C72.8767 31.97 72.2467 32.1333 71.724 32.46C71.2013 32.7867 70.8 33.2533 70.52 33.86C70.24 34.4573 70.1 35.1713 70.1 36.002C70.1 36.7953 70.2167 37.5 70.45 38.116C70.6833 38.7227 71.052 39.1987 71.556 39.544C72.0693 39.88 72.7367 40.048 73.558 40.048C73.8287 40.048 74.0667 40.0387 74.272 40.02C74.4867 39.992 74.6827 39.9593 74.86 39.922C75.0373 39.8847 75.2007 39.8473 75.35 39.81V36.842H73.306V35.722ZM79.9083 33.496V41H78.6903V33.496H79.9083ZM79.3063 30.682C79.493 30.682 79.6563 30.7473 79.7963 30.878C79.9363 30.9993 80.0063 31.1953 80.0063 31.466C80.0063 31.7273 79.9363 31.9233 79.7963 32.054C79.6563 32.1847 79.493 32.25 79.3063 32.25C79.1103 32.25 78.9423 32.1847 78.8023 32.054C78.6623 31.9233 78.5923 31.7273 78.5923 31.466C78.5923 31.1953 78.6623 30.9993 78.8023 30.878C78.9423 30.7473 79.1103 30.682 79.3063 30.682ZM84.5436 40.132C84.721 40.132 84.903 40.118 85.0896 40.09C85.2763 40.0527 85.4303 40.0153 85.5516 39.978V40.916C85.421 40.9813 85.2343 41.0327 84.9916 41.07C84.7583 41.1167 84.5343 41.14 84.3196 41.14C83.9463 41.14 83.601 41.0747 83.2836 40.944C82.9663 40.804 82.7096 40.566 82.5136 40.23C82.327 39.894 82.2336 39.4227 82.2336 38.816V34.448H81.2396V33.86L82.2616 33.37L82.7236 31.774H83.4516V33.496H85.4956V34.448H83.4516V38.788C83.4516 39.2453 83.5543 39.586 83.7596 39.81C83.965 40.0247 84.2263 40.132 84.5436 40.132ZM94.3398 41H93.0938V36.338H88.3618V41H87.1158V31.004H88.3618V35.232H93.0938V31.004H94.3398V41ZM102.687 33.496V41H101.707L101.525 40.006H101.469C101.32 40.2673 101.124 40.482 100.881 40.65C100.648 40.818 100.391 40.9393 100.111 41.014C99.8309 41.098 99.5369 41.14 99.2289 41.14C98.6689 41.14 98.1975 41.0467 97.8149 40.86C97.4322 40.664 97.1429 40.3653 96.9469 39.964C96.7602 39.5627 96.6669 39.0447 96.6669 38.41V33.496H97.8989V38.326C97.8989 38.9233 98.0249 39.3713 98.2769 39.67C98.5289 39.9687 98.9162 40.118 99.4389 40.118C99.9522 40.118 100.354 40.0153 100.643 39.81C100.942 39.5953 101.152 39.2873 101.273 38.886C101.404 38.4753 101.469 37.9807 101.469 37.402V33.496H102.687ZM106.117 32.95C106.117 33.2673 106.108 33.566 106.089 33.846C106.08 34.1167 106.066 34.3313 106.047 34.49H106.117C106.313 34.1727 106.588 33.9067 106.943 33.692C107.298 33.4773 107.746 33.37 108.287 33.37C109.164 33.37 109.864 33.6967 110.387 34.35C110.919 34.994 111.185 35.96 111.185 37.248C111.185 38.1067 111.064 38.8253 110.821 39.404C110.578 39.9827 110.238 40.4167 109.799 40.706C109.37 40.9953 108.866 41.14 108.287 41.14C107.736 41.14 107.284 41.0327 106.929 40.818C106.584 40.6033 106.313 40.3467 106.117 40.048H106.019L105.781 41H104.899V30.36H106.117V32.95ZM108.063 34.392C107.578 34.392 107.19 34.4947 106.901 34.7C106.621 34.896 106.42 35.204 106.299 35.624C106.178 36.0347 106.117 36.562 106.117 37.206V37.262C106.117 38.186 106.252 38.8953 106.523 39.39C106.803 39.8753 107.326 40.118 108.091 40.118C108.698 40.118 109.155 39.8707 109.463 39.376C109.771 38.8813 109.925 38.1673 109.925 37.234C109.925 36.2913 109.771 35.582 109.463 35.106C109.155 34.63 108.688 34.392 108.063 34.392Z" fill="white"/>
<path d="M129.121 41V31.1973H132.594C136.076 31.1973 137.816 32.79 137.816 35.9756C137.816 37.5023 137.34 38.7214 136.388 39.6328C135.44 40.5443 134.175 41 132.594 41H129.121ZM131.329 32.9951V39.209H132.423C133.38 39.209 134.13 38.9219 134.672 38.3477C135.219 37.7734 135.492 36.9919 135.492 36.0029C135.492 35.0687 135.221 34.335 134.679 33.8018C134.141 33.264 133.384 32.9951 132.409 32.9951H131.329ZM150.645 41H148.238L147.541 38.8193H144.055L143.364 41H140.972L144.54 31.1973H147.158L150.645 41ZM147.035 37.124L145.983 33.8291C145.905 33.583 145.85 33.2891 145.819 32.9473H145.764C145.741 33.2344 145.684 33.5192 145.593 33.8018L144.527 37.124H147.035ZM154.217 40.624V38.4365C154.614 38.7692 155.044 39.0199 155.509 39.1885C155.974 39.3525 156.443 39.4346 156.917 39.4346C157.195 39.4346 157.437 39.4095 157.642 39.3594C157.852 39.3092 158.025 39.2409 158.162 39.1543C158.303 39.0632 158.408 38.9583 158.476 38.8398C158.544 38.7168 158.579 38.5846 158.579 38.4434C158.579 38.252 158.524 38.0811 158.414 37.9307C158.305 37.7803 158.155 37.6413 157.963 37.5137C157.776 37.3861 157.553 37.263 157.293 37.1445C157.034 37.026 156.753 36.9053 156.453 36.7822C155.687 36.4632 155.115 36.0736 154.737 35.6133C154.363 35.153 154.176 34.597 154.176 33.9453C154.176 33.4349 154.279 32.9974 154.484 32.6328C154.689 32.2637 154.967 31.9606 155.318 31.7236C155.673 31.4867 156.083 31.3135 156.548 31.2041C157.013 31.0902 157.505 31.0332 158.025 31.0332C158.535 31.0332 158.986 31.0651 159.378 31.1289C159.775 31.1882 160.139 31.2816 160.472 31.4092V33.4531C160.308 33.3392 160.128 33.2389 159.932 33.1523C159.741 33.0658 159.542 32.9951 159.337 32.9404C159.132 32.8812 158.927 32.8379 158.722 32.8105C158.522 32.7832 158.33 32.7695 158.148 32.7695C157.897 32.7695 157.669 32.7946 157.464 32.8447C157.259 32.8903 157.086 32.9564 156.945 33.043C156.803 33.1296 156.694 33.2344 156.617 33.3574C156.539 33.4759 156.5 33.6104 156.5 33.7607C156.5 33.9248 156.544 34.0729 156.63 34.2051C156.717 34.3327 156.84 34.4557 156.999 34.5742C157.159 34.6882 157.353 34.8021 157.58 34.916C157.808 35.0254 158.066 35.1393 158.353 35.2578C158.745 35.4219 159.096 35.5973 159.406 35.7842C159.72 35.9665 159.989 36.1738 160.212 36.4062C160.436 36.6387 160.607 36.9053 160.725 37.2061C160.843 37.5023 160.903 37.8486 160.903 38.2451C160.903 38.792 160.798 39.2523 160.588 39.626C160.383 39.9951 160.103 40.2959 159.747 40.5283C159.392 40.7562 158.977 40.9202 158.503 41.0205C158.034 41.1208 157.537 41.1709 157.013 41.1709C156.475 41.1709 155.963 41.1253 155.475 41.0342C154.992 40.943 154.573 40.8063 154.217 40.624ZM173.799 41H171.585V37.0078H167.524V41H165.316V31.1973H167.524V35.1074H171.585V31.1973H173.799V41ZM178.848 41V31.1973H182.417C183.511 31.1973 184.351 31.3978 184.939 31.7988C185.527 32.1999 185.821 32.765 185.821 33.4941C185.821 34.0228 185.641 34.4854 185.281 34.8818C184.926 35.2783 184.47 35.554 183.914 35.709V35.7363C184.611 35.8229 185.167 36.0804 185.582 36.5088C186.001 36.9372 186.211 37.459 186.211 38.0742C186.211 38.972 185.889 39.6852 185.247 40.2139C184.604 40.738 183.727 41 182.615 41H178.848ZM181.056 32.8242V35.1484H182.027C182.483 35.1484 182.841 35.0391 183.1 34.8203C183.365 34.597 183.497 34.2917 183.497 33.9043C183.497 33.1842 182.959 32.8242 181.884 32.8242H181.056ZM181.056 36.7891V39.373H182.253C182.763 39.373 183.162 39.2546 183.449 39.0176C183.741 38.7806 183.887 38.457 183.887 38.0469C183.887 37.6549 183.743 37.3473 183.456 37.124C183.173 36.9007 182.777 36.7891 182.266 36.7891H181.056ZM194.773 41.1709C193.37 41.1709 192.226 40.7152 191.342 39.8037C190.458 38.8877 190.016 37.696 190.016 36.2285C190.016 34.679 190.465 33.4258 191.362 32.4688C192.26 31.5117 193.45 31.0332 194.931 31.0332C196.33 31.0332 197.46 31.4912 198.321 32.4072C199.187 33.3232 199.62 34.5309 199.62 36.0303C199.62 37.5706 199.171 38.8125 198.273 39.7559C197.38 40.6992 196.214 41.1709 194.773 41.1709ZM194.869 32.9336C194.094 32.9336 193.479 33.2253 193.023 33.8086C192.568 34.3874 192.34 35.1553 192.34 36.1123C192.34 37.083 192.568 37.8509 193.023 38.416C193.479 38.9811 194.076 39.2637 194.814 39.2637C195.576 39.2637 196.179 38.9902 196.626 38.4434C197.073 37.8919 197.296 37.1286 197.296 36.1533C197.296 35.137 197.079 34.3464 196.646 33.7812C196.214 33.2161 195.621 32.9336 194.869 32.9336ZM212.455 41H210.049L209.352 38.8193H205.865L205.175 41H202.782L206.351 31.1973H208.969L212.455 41ZM208.846 37.124L207.793 33.8291C207.716 33.583 207.661 33.2891 207.629 32.9473H207.574C207.552 33.2344 207.495 33.5192 207.404 33.8018L206.337 37.124H208.846ZM224.703 41H222.166L220.642 38.4775C220.528 38.2861 220.419 38.1152 220.314 37.9648C220.209 37.8145 220.102 37.6868 219.993 37.582C219.888 37.4727 219.776 37.3906 219.658 37.3359C219.544 37.2767 219.418 37.2471 219.282 37.2471H218.687V41H216.479V31.1973H219.979C222.358 31.1973 223.547 32.0859 223.547 33.8633C223.547 34.2051 223.495 34.5218 223.39 34.8135C223.285 35.1006 223.137 35.3604 222.946 35.5928C222.754 35.8252 222.522 36.0257 222.248 36.1943C221.98 36.363 221.679 36.4951 221.346 36.5908V36.6182C221.492 36.6637 221.633 36.7389 221.77 36.8438C221.907 36.944 222.039 37.0625 222.166 37.1992C222.294 37.3359 222.415 37.484 222.529 37.6436C222.647 37.7985 222.754 37.9512 222.85 38.1016L224.703 41ZM218.687 32.8516V35.5791H219.644C220.118 35.5791 220.498 35.4424 220.786 35.1689C221.077 34.891 221.223 34.5469 221.223 34.1367C221.223 33.2799 220.71 32.8516 219.685 32.8516H218.687ZM228.425 41V31.1973H231.898C235.38 31.1973 237.121 32.79 237.121 35.9756C237.121 37.5023 236.644 38.7214 235.692 39.6328C234.744 40.5443 233.479 41 231.898 41H228.425ZM230.633 32.9951V39.209H231.727C232.684 39.209 233.434 38.9219 233.976 38.3477C234.523 37.7734 234.796 36.9919 234.796 36.0029C234.796 35.0687 234.525 34.335 233.983 33.8018C233.445 33.264 232.689 32.9951 231.713 32.9951H230.633ZM256.44 41H253.904L252.38 38.4775C252.266 38.2861 252.157 38.1152 252.052 37.9648C251.947 37.8145 251.84 37.6868 251.73 37.582C251.626 37.4727 251.514 37.3906 251.396 37.3359C251.282 37.2767 251.156 37.2471 251.02 37.2471H250.425V41H248.217V31.1973H251.717C254.096 31.1973 255.285 32.0859 255.285 33.8633C255.285 34.2051 255.233 34.5218 255.128 34.8135C255.023 35.1006 254.875 35.3604 254.684 35.5928C254.492 35.8252 254.26 36.0257 253.986 36.1943C253.717 36.363 253.417 36.4951 253.084 36.5908V36.6182C253.23 36.6637 253.371 36.7389 253.508 36.8438C253.645 36.944 253.777 37.0625 253.904 37.1992C254.032 37.3359 254.153 37.484 254.267 37.6436C254.385 37.7985 254.492 37.9512 254.588 38.1016L256.44 41ZM250.425 32.8516V35.5791H251.382C251.856 35.5791 252.236 35.4424 252.523 35.1689C252.815 34.891 252.961 34.5469 252.961 34.1367C252.961 33.2799 252.448 32.8516 251.423 32.8516H250.425ZM268.783 41H266.377L265.68 38.8193H262.194L261.503 41H259.111L262.679 31.1973H265.297L268.783 41ZM265.174 37.124L264.121 33.8291C264.044 33.583 263.989 33.2891 263.957 32.9473H263.903C263.88 33.2344 263.823 33.5192 263.732 33.8018L262.665 37.124H265.174ZM272.807 41V31.1973H276.28C279.761 31.1973 281.502 32.79 281.502 35.9756C281.502 37.5023 281.026 38.7214 280.074 39.6328C279.126 40.5443 277.861 41 276.28 41H272.807ZM275.015 32.9951V39.209H276.109C277.066 39.209 277.816 38.9219 278.358 38.3477C278.905 37.7734 279.178 36.9919 279.178 36.0029C279.178 35.0687 278.907 34.335 278.365 33.8018C277.827 33.264 277.07 32.9951 276.095 32.9951H275.015ZM294.331 41H291.924L291.227 38.8193H287.741L287.05 41H284.658L288.226 31.1973H290.844L294.331 41ZM290.721 37.124L289.669 33.8291C289.591 33.583 289.536 33.2891 289.504 32.9473H289.45C289.427 33.2344 289.37 33.5192 289.279 33.8018L288.212 37.124H290.721ZM306.578 41H304.042L302.517 38.4775C302.403 38.2861 302.294 38.1152 302.189 37.9648C302.084 37.8145 301.977 37.6868 301.868 37.582C301.763 37.4727 301.651 37.3906 301.533 37.3359C301.419 37.2767 301.294 37.2471 301.157 37.2471H300.562V41H298.354V31.1973H301.854C304.233 31.1973 305.423 32.0859 305.423 33.8633C305.423 34.2051 305.37 34.5218 305.265 34.8135C305.161 35.1006 305.012 35.3604 304.821 35.5928C304.63 35.8252 304.397 36.0257 304.124 36.1943C303.855 36.363 303.554 36.4951 303.221 36.5908V36.6182C303.367 36.6637 303.509 36.7389 303.645 36.8438C303.782 36.944 303.914 37.0625 304.042 37.1992C304.169 37.3359 304.29 37.484 304.404 37.6436C304.523 37.7985 304.63 37.9512 304.725 38.1016L306.578 41ZM300.562 32.8516V35.5791H301.519C301.993 35.5791 302.374 35.4424 302.661 35.1689C302.953 34.891 303.098 34.5469 303.098 34.1367C303.098 33.2799 302.586 32.8516 301.56 32.8516H300.562Z" fill="white"/>
<path d="M119.122 30.36H120.116V44.374H119.122V30.36Z" fill="white"/>
<g filter="url(#filter0_ddddd_23_758)">
<rect x="575" y="191" width="835" height="330" rx="6" fill="white"/>
</g>
<g filter="url(#filter1_dd_23_758)">
<rect width="1440" height="72" transform="translate(0 72)" fill="white" fill-opacity="0.01"/>
<path d="M36.9453 104.48H31.4766V109.324H36.5352V110.799H31.4766V117H29.8359V102.996H36.9453V104.48ZM44.207 104.461C43.9206 104.461 43.6764 104.363 43.4746 104.168C43.2728 103.973 43.1719 103.725 43.1719 103.426C43.1719 103.126 43.2728 102.879 43.4746 102.684C43.6764 102.482 43.9206 102.381 44.207 102.381C44.5 102.381 44.7474 102.482 44.9492 102.684C45.1576 102.879 45.2617 103.126 45.2617 103.426C45.2617 103.712 45.1576 103.956 44.9492 104.158C44.7474 104.36 44.5 104.461 44.207 104.461ZM44.9883 117H43.3867V107H44.9883V117ZM53.832 117H52.2305V102.195H53.832V117ZM65.7129 116.902C65.3353 117.111 64.8372 117.215 64.2188 117.215C62.4674 117.215 61.5918 116.238 61.5918 114.285V108.367H59.873V107H61.5918V104.559L63.1934 104.041V107H65.7129V108.367H63.1934V114.002C63.1934 114.673 63.3073 115.151 63.5352 115.438C63.763 115.724 64.1406 115.867 64.668 115.867C65.0716 115.867 65.4199 115.757 65.7129 115.535V116.902ZM77.0664 108.621C76.7865 108.406 76.3828 108.299 75.8555 108.299C75.1719 108.299 74.599 108.621 74.1367 109.266C73.681 109.91 73.4531 110.789 73.4531 111.902V117H71.8516V107H73.4531V109.061H73.4922C73.7201 108.357 74.0684 107.811 74.5371 107.42C75.0059 107.023 75.5299 106.824 76.1094 106.824C76.526 106.824 76.8451 106.87 77.0664 106.961V108.621ZM86.9844 117.234C85.5065 117.234 84.3249 116.769 83.4395 115.838C82.5605 114.9 82.1211 113.66 82.1211 112.117C82.1211 110.438 82.5801 109.126 83.498 108.182C84.416 107.238 85.6562 106.766 87.2188 106.766C88.7096 106.766 89.8717 107.225 90.7051 108.143C91.5449 109.061 91.9648 110.333 91.9648 111.961C91.9648 113.556 91.5124 114.835 90.6074 115.799C89.709 116.756 88.5013 117.234 86.9844 117.234ZM87.1016 108.113C86.0729 108.113 85.2591 108.465 84.6602 109.168C84.0612 109.865 83.7617 110.828 83.7617 112.059C83.7617 113.243 84.0645 114.178 84.6699 114.861C85.2754 115.545 86.0859 115.887 87.1016 115.887C88.1367 115.887 88.931 115.551 89.4844 114.881C90.0443 114.21 90.3242 113.257 90.3242 112.02C90.3242 110.77 90.0443 109.806 89.4844 109.129C88.931 108.452 88.1367 108.113 87.1016 108.113ZM97.918 116.639V114.92C98.7904 115.564 99.7507 115.887 100.799 115.887C102.205 115.887 102.908 115.418 102.908 114.48C102.908 114.214 102.846 113.989 102.723 113.807C102.605 113.618 102.443 113.452 102.234 113.309C102.033 113.165 101.792 113.038 101.512 112.928C101.238 112.811 100.942 112.69 100.623 112.566C100.18 112.391 99.7897 112.215 99.4512 112.039C99.1191 111.857 98.8392 111.655 98.6113 111.434C98.39 111.206 98.2207 110.949 98.1035 110.662C97.9928 110.376 97.9375 110.04 97.9375 109.656C97.9375 109.188 98.0449 108.774 98.2598 108.416C98.4746 108.051 98.7611 107.749 99.1191 107.508C99.4772 107.26 99.8841 107.075 100.34 106.951C100.802 106.827 101.277 106.766 101.766 106.766C102.632 106.766 103.406 106.915 104.09 107.215V108.836C103.354 108.354 102.508 108.113 101.551 108.113C101.251 108.113 100.981 108.149 100.74 108.221C100.499 108.286 100.291 108.38 100.115 108.504C99.946 108.628 99.8125 108.777 99.7148 108.953C99.6237 109.122 99.5781 109.311 99.5781 109.52C99.5781 109.78 99.6237 109.998 99.7148 110.174C99.8125 110.35 99.9525 110.506 100.135 110.643C100.317 110.779 100.538 110.903 100.799 111.014C101.059 111.124 101.355 111.245 101.688 111.375C102.13 111.544 102.527 111.72 102.879 111.902C103.23 112.078 103.53 112.28 103.777 112.508C104.025 112.729 104.214 112.986 104.344 113.279C104.48 113.572 104.549 113.921 104.549 114.324C104.549 114.819 104.438 115.249 104.217 115.613C104.002 115.978 103.712 116.281 103.348 116.521C102.983 116.762 102.563 116.941 102.088 117.059C101.613 117.176 101.115 117.234 100.594 117.234C99.5651 117.234 98.6732 117.036 97.918 116.639ZM111.576 108.953C111.277 108.953 111.02 108.846 110.805 108.631C110.596 108.416 110.492 108.159 110.492 107.859C110.492 107.56 110.596 107.306 110.805 107.098C111.02 106.889 111.277 106.785 111.576 106.785C111.882 106.785 112.143 106.889 112.357 107.098C112.572 107.306 112.68 107.56 112.68 107.859C112.68 108.159 112.572 108.416 112.357 108.631C112.143 108.846 111.882 108.953 111.576 108.953ZM111.576 117.215C111.277 117.215 111.02 117.107 110.805 116.893C110.596 116.678 110.492 116.421 110.492 116.121C110.492 115.822 110.596 115.564 110.805 115.35C111.02 115.128 111.277 115.018 111.576 115.018C111.882 115.018 112.143 115.128 112.357 115.35C112.572 115.564 112.68 115.822 112.68 116.121C112.68 116.421 112.572 116.678 112.357 116.893C112.143 117.107 111.882 117.215 111.576 117.215Z" fill="#24292F"/>
</g>
</g>
<defs>
<filter id="filter0_ddddd_23_758" x="558" y="190" width="869" height="370" filterUnits="userSpaceOnUse" color-interpolation-filters="sRGB">
<feFlood flood-opacity="0" result="BackgroundImageFix"/>
<feColorMatrix in="SourceAlpha" type="matrix" values="0 0 0 0 0 0 0 0 0 0 0 0 0 0 0 0 0 0 127 0" result="hardAlpha"/>
<feOffset dy="22"/>
<feGaussianBlur stdDeviation="8.5"/>
<feComposite in2="hardAlpha" operator="out"/>
<feColorMatrix type="matrix" values="0 0 0 0 0 0 0 0 0 0 0 0 0 0 0 0 0 0 0.02 0"/>
<feBlend mode="normal" in2="BackgroundImageFix" result="effect1_dropShadow_23_758"/>
<feColorMatrix in="SourceAlpha" type="matrix" values="0 0 0 0 0 0 0 0 0 0 0 0 0 0 0 0 0 0 127 0" result="hardAlpha"/>
<feOffset dy="13"/>
<feGaussianBlur stdDeviation="5"/>
<feComposite in2="hardAlpha" operator="out"/>
<feColorMatrix type="matrix" values="0 0 0 0 0 0 0 0 0 0 0 0 0 0 0 0 0 0 0.02 0"/>
<feBlend mode="normal" in2="effect1_dropShadow_23_758" result="effect2_dropShadow_23_758"/>
<feColorMatrix in="SourceAlpha" type="matrix" values="0 0 0 0 0 0 0 0 0 0 0 0 0 0 0 0 0 0 127 0" result="hardAlpha"/>
<feOffset dy="7"/>
<feGaussianBlur stdDeviation="2.5"/>
<feComposite in2="hardAlpha" operator="out"/>
<feColorMatrix type="matrix" values="0 0 0 0 0 0 0 0 0 0 0 0 0 0 0 0 0 0 0.02 0"/>
<feBlend mode="normal" in2="effect2_dropShadow_23_758" result="effect3_dropShadow_23_758"/>
<feColorMatrix in="SourceAlpha" type="matrix" values="0 0 0 0 0 0 0 0 0 0 0 0 0 0 0 0 0 0 127 0" result="hardAlpha"/>
<feOffset dy="3"/>
<feGaussianBlur stdDeviation="1"/>
<feComposite in2="hardAlpha" operator="out"/>
<feColorMatrix type="matrix" values="0 0 0 0 0 0 0 0 0 0 0 0 0 0 0 0 0 0 0.04 0"/>
<feBlend mode="normal" in2="effect3_dropShadow_23_758" result="effect4_dropShadow_23_758"/>
<feColorMatrix in="SourceAlpha" type="matrix" values="0 0 0 0 0 0 0 0 0 0 0 0 0 0 0 0 0 0 127 0" result="hardAlpha"/>
<feMorphology radius="1" operator="dilate" in="SourceAlpha" result="effect5_dropShadow_23_758"/>
<feOffset/>
<feComposite in2="hardAlpha" operator="out"/>
<feColorMatrix type="matrix" values="0 0 0 0 0.207843 0 0 0 0 0.282353 0 0 0 0 0.356863 0 0 0 0.14 0"/>
<feBlend mode="normal" in2="effect4_dropShadow_23_758" result="effect5_dropShadow_23_758"/>
<feBlend mode="normal" in="SourceGraphic" in2="effect5_dropShadow_23_758" result="shape"/>
</filter>
<filter id="filter1_dd_23_758" x="-7" y="72" width="1454" height="86" filterUnits="userSpaceOnUse" color-interpolation-filters="sRGB">
<feFlood flood-opacity="0" result="BackgroundImageFix"/>
<feColorMatrix in="SourceAlpha" type="matrix" values="0 0 0 0 0 0 0 0 0 0 0 0 0 0 0 0 0 0 127 0" result="hardAlpha"/>
<feOffset dy="7"/>
<feGaussianBlur stdDeviation="3.5"/>
<feComposite in2="hardAlpha" operator="out"/>
<feColorMatrix type="matrix" values="0 0 0 0 0 0 0 0 0 0 0 0 0 0 0 0 0 0 0.03 0"/>
<feBlend mode="normal" in2="BackgroundImageFix" result="effect1_dropShadow_23_758"/>
<feColorMatrix in="SourceAlpha" type="matrix" values="0 0 0 0 0 0 0 0 0 0 0 0 0 0 0 0 0 0 127 0" result="hardAlpha"/>
<feOffset dy="3"/>
<feGaussianBlur stdDeviation="1"/>
<feComposite in2="hardAlpha" operator="out"/>
<feColorMatrix type="matrix" values="0 0 0 0 0 0 0 0 0 0 0 0 0 0 0 0 0 0 0.04 0"/>
<feBlend mode="normal" in2="effect1_dropShadow_23_758" result="effect2_dropShadow_23_758"/>
<feBlend mode="normal" in="SourceGraphic" in2="effect2_dropShadow_23_758" result="shape"/>
</filter>
<clipPath id="clip0_23_758">
<rect width="1440" height="1024" rx="16" fill="white"/>
</clipPath>
</defs>
</svg>
